ffmpeg started on 2025-05-05 at 19:40:45
Report written to "D:\Convert\FFMetrics\reports\psnr_report-6.txt"
Log level: 32
Command line:
ffmpeg -hide_banner -nostdin -i "G:\\\xc0\xed\xe8\xec\xe5\\\xce\xed\xe3\xee\xe8\xed\xe3\xe8\\!_35_\xcb\xe5\xf2\xee_2024\\JamClub\\\xdf \xef\xe0\xf0\xe8\xf0\xee\xe2\xe0\xeb \xe2\xf1\xb8 \xe2\xf0\xe5\xec\xff, \xf7\xf2\xee\xe1\xfb \xf1\xf2\xe0\xf2\xfc \xf1\xe8\xeb\xfc\xed\xe5\xe9\xf8\xe8\xec \xe0\xe2\xe0\xed\xf2\xfe\xf0\xe8\xf1\xf2\xee\xec\\JamClub_I_Parry_Everything_05_1080p_HEVC.mkv" -i "G:\\\xc0\xed\xe8\xec\xe5\\\xce\xed\xe3\xee\xe8\xed\xe3\xe8\\!_35_\xcb\xe5\xf2\xee_2024\\JamClub\\\xdf \xef\xe0\xf0\xe8\xf0\xee\xe2\xe0\xeb \xe2\xf1\xb8 \xe2\xf0\xe5\xec\xff, \xf7\xf2\xee\xe1\xfb \xf1\xf2\xe0\xf2\xfc \xf1\xe8\xeb\xfc\xed\xe5\xe9\xf8\xe8\xec \xe0\xe2\xe0\xed\xf2\xfe\xf0\xe8\xf1\xf2\xee\xec\\JamClub_I_Parry_Everything_05_1080p.mp4" -lavfi "[0:v]settb=AVTB,setpts=PTS-STARTPTS,format=pix_fmts=yuv420p10,fps=24000/1001,scale=1920:1080:flags=bicubic[main];[1:v]settb=AVTB,setpts=PTS-STARTPTS,format=pix_fmts=yuv420p,fps=24000/1001,scale=1920:1080:flags=bicubic[ref];[main][ref]psnr=eof_action=endall:stats_file='D\\:/Convert/FFMetrics/logs/psnr_logfile-6.txt'" -f null -
Input #0, matroska,webm, from 'G:\Аниме\Онгоинги\!_35_Лето_2024\JamClub\Я парировал всё время, чтобы стать сильнейшим авантюристом\JamClub_I_Parry_Everything_05_1080p_HEVC.mkv':
  Metadata:
    COMPATIBLE_BRANDS: isomiso2avc1mp41
    MAJOR_BRAND     : isom
    MINOR_VERSION   : 512
    ENCODER         : Lavf61.7.100
  Duration: 00:24:04.67, start: -0.001000, bitrate: 1284 kb/s
  Stream #0:0: Video: hevc (Main 10), yuv420p10le(tv, bt709, progressive), 1920x1080 [SAR 1:1 DAR 16:9], 23.98 fps, 23.98 tbr, 1k tbn (default)
      Metadata:
        HANDLER_NAME    : VideoHandler
        VENDOR_ID       : [0][0][0][0]
        ENCODER         : Lavc61.19.100 libx265
        BPS             : 1086205
        DURATION        : 00:24:04.651708333
        NUMBER_OF_FRAMES: 34637
        NUMBER_OF_BYTES : 196148570
        _STATISTICS_WRITING_APP: mkvpropedit v66.0.0 ('Josie') 64-bit
        _STATISTICS_WRITING_DATE_UTC: 2025-05-05 10:33:29
        _STATISTICS_TAGS: BPS DURATION NUMBER_OF_FRAMES NUMBER_OF_BYTES
  Stream #0:1(eng): Audio: aac (LC), 48000 Hz, stereo, fltp (default)
      Metadata:
        HANDLER_NAME    : SoundHandler
        VENDOR_ID       : [0][0][0][0]
        ENCODER         : Lavc61.19.100 aac
        BPS             : 194295
        DURATION        : 00:24:04.632000000
        NUMBER_OF_FRAMES: 67718
        NUMBER_OF_BYTES : 35085722
        _STATISTICS_WRITING_APP: mkvpropedit v66.0.0 ('Josie') 64-bit
        _STATISTICS_WRITING_DATE_UTC: 2025-05-05 10:33:29
        _STATISTICS_TAGS: BPS DURATION NUMBER_OF_FRAMES NUMBER_OF_BYTES
Input #1, mov,mp4,m4a,3gp,3g2,mj2, from 'G:\Аниме\Онгоинги\!_35_Лето_2024\JamClub\Я парировал всё время, чтобы стать сильнейшим авантюристом\JamClub_I_Parry_Everything_05_1080p.mp4':
  Metadata:
    major_brand     : isom
    minor_version   : 512
    compatible_brands: isomiso2avc1mp41
    encoder         : Lavf60.16.100
  Duration: 00:24:04.65, start: 0.000000, bitrate: 4240 kb/s
  Stream #1:0[0x1](und): Video: h264 (High) (avc1 / 0x31637661), yuv420p(progressive), 1920x1080 [SAR 1:1 DAR 16:9], 4042 kb/s, 23.98 fps, 23.98 tbr, 90k tbn (default)
      Metadata:
        handler_name    : VideoHandler
        vendor_id       : [0][0][0][0]
  Stream #1:1[0x2](eng): Audio: aac (LC) (mp4a / 0x6134706D), 48000 Hz, stereo, fltp, 191 kb/s (default)
      Metadata:
        handler_name    : SoundHandler
        vendor_id       : [0][0][0][0]
Stream mapping:
  Stream #0:0 (hevc) -> settb:default
  Stream #1:0 (h264) -> settb:default
  psnr:default -> Stream #0:0 (wrapped_avframe)
  Stream #0:1 -> #0:1 (aac (native) -> pcm_s16le (native))
Output #0, null, to 'pipe:':
  Metadata:
    COMPATIBLE_BRANDS: isomiso2avc1mp41
    MAJOR_BRAND     : isom
    MINOR_VERSION   : 512
    encoder         : Lavf61.7.100
  Stream #0:0: Video: wrapped_avframe, yuv420p10le(tv, bt709, progressive), 1920x1080 [SAR 1:1 DAR 16:9], q=2-31, 200 kb/s, 23.98 fps, 23.98 tbn
      Metadata:
        encoder         : Lavc61.19.100 wrapped_avframe
  Stream #0:1(eng): Audio: pcm_s16le, 48000 Hz, stereo, s16, 1536 kb/s (default)
      Metadata:
        HANDLER_NAME    : SoundHandler
        VENDOR_ID       : [0][0][0][0]
        _STATISTICS_TAGS: BPS DURATION NUMBER_OF_FRAMES NUMBER_OF_BYTES
        BPS             : 194295
        DURATION        : 00:24:04.632000000
        NUMBER_OF_FRAMES: 67718
        NUMBER_OF_BYTES : 35085722
        _STATISTICS_WRITING_APP: mkvpropedit v66.0.0 ('Josie') 64-bit
        _STATISTICS_WRITING_DATE_UTC: 2025-05-05 10:33:29
        encoder         : Lavc61.19.100 pcm_s16le
frame=  109 fps=0.0 q=-0.0 size=N/A time=00:00:04.54 bitrate=N/A speed= 8.6x    frame=  260 fps=251 q=-0.0 size=N/A time=00:00:10.84 bitrate=N/A speed=10.5x    frame=  438 fps=281 q=-0.0 size=N/A time=00:00:18.26 bitrate=N/A speed=11.7x    frame=  683 fps=330 q=-0.0 size=N/A time=00:00:28.48 bitrate=N/A speed=13.8x    frame=  935 fps=363 q=-0.0 size=N/A time=00:00:38.99 bitrate=N/A speed=15.1x    frame= 1185 fps=382 q=-0.0 size=N/A time=00:00:49.42 bitrate=N/A speed=  16x    frame= 1443 fps=400 q=-0.0 size=N/A time=00:01:00.18 bitrate=N/A speed=16.7x    frame= 1717 fps=416 q=-0.0 size=N/A time=00:01:11.61 bitrate=N/A speed=17.3x    frame= 1993 fps=428 q=-0.0 size=N/A time=00:01:23.12 bitrate=N/A speed=17.9x    frame= 2245 fps=435 q=-0.0 size=N/A time=00:01:33.63 bitrate=N/A speed=18.1x    frame= 2521 fps=444 q=-0.0 size=N/A time=00:01:45.14 bitrate=N/A speed=18.5x    frame= 2723 fps=440 q=-0.0 size=N/A time=00:01:53.57 bitrate=N/A speed=18.3x    frame= 2964 fps=441 q=-0.0 size=N/A time=00:02:03.62 bitrate=N/A speed=18.4x    frame= 3156 fps=437 q=-0.0 size=N/A time=00:02:11.63 bitrate=N/A speed=18.2x    frame= 3347 fps=432 q=-0.0 size=N/A time=00:02:19.59 bitrate=N/A speed=  18x    frame= 3497 fps=424 q=-0.0 size=N/A time=00:02:25.85 bitrate=N/A speed=17.7x    frame= 3687 fps=421 q=-0.0 size=N/A time=00:02:33.77 bitrate=N/A speed=17.5x    frame= 3887 fps=419 q=-0.0 size=N/A time=00:02:42.12 bitrate=N/A speed=17.5x    frame= 4083 fps=416 q=-0.0 size=N/A time=00:02:50.29 bitrate=N/A speed=17.4x    frame= 4195 fps=407 q=-0.0 size=N/A time=00:02:54.96 bitrate=N/A speed=  17x    frame= 4378 fps=404 q=-0.0 size=N/A time=00:03:02.59 bitrate=N/A speed=16.8x    frame= 4546 fps=401 q=-0.0 size=N/A time=00:03:09.60 bitrate=N/A speed=16.7x    frame= 4769 fps=402 q=-0.0 size=N/A time=00:03:18.90 bitrate=N/A speed=16.8x    frame= 5025 fps=406 q=-0.0 size=N/A time=00:03:29.58 bitrate=N/A speed=16.9x    frame= 5296 fps=410 q=-0.0 size=N/A time=00:03:40.88 bitrate=N/A speed=17.1x    frame= 5555 fps=414 q=-0.0 size=N/A time=00:03:51.68 bitrate=N/A speed=17.3x    frame= 5824 fps=418 q=-0.0 size=N/A time=00:04:02.90 bitrate=N/A speed=17.4x    frame= 6096 fps=422 q=-0.0 size=N/A time=00:04:14.25 bitrate=N/A speed=17.6x    frame= 6373 fps=425 q=-0.0 size=N/A time=00:04:25.80 bitrate=N/A speed=17.7x    frame= 6634 fps=428 q=-0.0 size=N/A time=00:04:36.69 bitrate=N/A speed=17.9x    frame= 6911 fps=432 q=-0.0 size=N/A time=00:04:48.24 bitrate=N/A speed=  18x    frame= 7136 fps=432 q=-0.0 size=N/A time=00:04:57.63 bitrate=N/A speed=  18x    frame= 7345 fps=431 q=-0.0 size=N/A time=00:05:06.34 bitrate=N/A speed=  18x    frame= 7568 fps=431 q=-0.0 size=N/A time=00:05:15.64 bitrate=N/A speed=  18x    frame= 7798 fps=431 q=-0.0 size=N/A time=00:05:25.24 bitrate=N/A speed=  18x    frame= 8009 fps=431 q=-0.0 size=N/A time=00:05:34.04 bitrate=N/A speed=  18x    frame= 8243 fps=431 q=-0.0 size=N/A time=00:05:43.80 bitrate=N/A speed=  18x    frame= 8459 fps=431 q=-0.0 size=N/A time=00:05:52.81 bitrate=N/A speed=  18x    frame= 8696 fps=432 q=-0.0 size=N/A time=00:06:02.69 bitrate=N/A speed=  18x    frame= 8925 fps=432 q=-0.0 size=N/A time=00:06:12.24 bitrate=N/A speed=  18x    frame= 9142 fps=432 q=-0.0 size=N/A time=00:06:21.29 bitrate=N/A speed=  18x    frame= 9402 fps=433 q=-0.0 size=N/A time=00:06:32.14 bitrate=N/A speed=18.1x    frame= 9646 fps=434 q=-0.0 size=N/A time=00:06:42.31 bitrate=N/A speed=18.1x    frame= 9894 fps=435 q=-0.0 size=N/A time=00:06:52.66 bitrate=N/A speed=18.2x    frame=10141 fps=436 q=-0.0 size=N/A time=00:07:02.96 bitrate=N/A speed=18.2x    frame=10422 fps=439 q=-0.0 size=N/A time=00:07:14.68 bitrate=N/A speed=18.3x    frame=10688 fps=440 q=-0.0 size=N/A time=00:07:25.77 bitrate=N/A speed=18.4x    frame=10966 fps=442 q=-0.0 size=N/A time=00:07:37.37 bitrate=N/A speed=18.5x    frame=11192 fps=442 q=-0.0 size=N/A time=00:07:46.79 bitrate=N/A speed=18.5x    frame=11408 fps=442 q=-0.0 size=N/A time=00:07:55.80 bitrate=N/A speed=18.4x    frame=11676 fps=443 q=-0.0 size=N/A time=00:08:06.98 bitrate=N/A speed=18.5x    frame=11953 fps=445 q=-0.0 size=N/A time=00:08:18.53 bitrate=N/A speed=18.6x    frame=12209 fps=446 q=-0.0 size=N/A time=00:08:29.21 bitrate=N/A speed=18.6x    frame=12443 fps=446 q=-0.0 size=N/A time=00:08:38.97 bitrate=N/A speed=18.6x    frame=12674 fps=446 q=-0.0 size=N/A time=00:08:48.61 bitrate=N/A speed=18.6x    frame=12901 fps=446 q=-0.0 size=N/A time=00:08:58.07 bitrate=N/A speed=18.6x    frame=13132 fps=446 q=-0.0 size=N/A time=00:09:07.71 bitrate=N/A speed=18.6x    frame=13368 fps=446 q=-0.0 size=N/A time=00:09:17.55 bitrate=N/A speed=18.6x    frame=13624 fps=447 q=-0.0 size=N/A time=00:09:28.23 bitrate=N/A speed=18.7x    frame=13876 fps=448 q=-0.0 size=N/A time=00:09:38.74 bitrate=N/A speed=18.7x    frame=14087 fps=447 q=-0.0 size=N/A time=00:09:47.54 bitrate=N/A speed=18.7x    frame=14341 fps=448 q=-0.0 size=N/A time=00:09:58.13 bitrate=N/A speed=18.7x    frame=14602 fps=449 q=-0.0 size=N/A time=00:10:09.02 bitrate=N/A speed=18.7x    frame=14865 fps=450 q=-0.0 size=N/A time=00:10:19.99 bitrate=N/A speed=18.8x    frame=15131 fps=451 q=-0.0 size=N/A time=00:10:31.08 bitrate=N/A speed=18.8x    frame=15406 fps=452 q=-0.0 size=N/A time=00:10:42.55 bitrate=N/A speed=18.9x    frame=15655 fps=453 q=-0.0 size=N/A time=00:10:52.94 bitrate=N/A speed=18.9x    frame=15835 fps=451 q=-0.0 size=N/A time=00:11:00.45 bitrate=N/A speed=18.8x    frame=16092 fps=452 q=-0.0 size=N/A time=00:11:11.17 bitrate=N/A speed=18.8x    frame=16336 fps=452 q=-0.0 size=N/A time=00:11:21.34 bitrate=N/A speed=18.9x    frame=16592 fps=453 q=-0.0 size=N/A time=00:11:32.02 bitrate=N/A speed=18.9x    frame=16820 fps=453 q=-0.0 size=N/A time=00:11:41.53 bitrate=N/A speed=18.9x    frame=17059 fps=453 q=-0.0 size=N/A time=00:11:51.50 bitrate=N/A speed=18.9x    frame=17336 fps=454 q=-0.0 size=N/A time=00:12:03.05 bitrate=N/A speed=18.9x    frame=17608 fps=455 q=-0.0 size=N/A time=00:12:14.40 bitrate=N/A speed=  19x    frame=17876 fps=456 q=-0.0 size=N/A time=00:12:25.57 bitrate=N/A speed=  19x    frame=18138 fps=456 q=-0.0 size=N/A time=00:12:36.50 bitrate=N/A speed=  19x    frame=18386 fps=457 q=-0.0 size=N/A time=00:12:46.84 bitrate=N/A speed=19.1x    frame=18635 fps=457 q=-0.0 size=N/A time=00:12:57.23 bitrate=N/A speed=19.1x    frame=18893 fps=458 q=-0.0 size=N/A time=00:13:07.99 bitrate=N/A speed=19.1x    frame=19083 fps=457 q=-0.0 size=N/A time=00:13:15.92 bitrate=N/A speed=  19x    frame=19303 fps=456 q=-0.0 size=N/A time=00:13:25.09 bitrate=N/A speed=  19x    frame=19501 fps=455 q=-0.0 size=N/A time=00:13:33.35 bitrate=N/A speed=  19x    frame=19703 fps=454 q=-0.0 size=N/A time=00:13:41.77 bitrate=N/A speed=  19x    frame=19918 fps=454 q=-0.0 size=N/A time=00:13:50.74 bitrate=N/A speed=18.9x    frame=20191 fps=455 q=-0.0 size=N/A time=00:14:02.13 bitrate=N/A speed=  19x    frame=20472 fps=456 q=-0.0 size=N/A time=00:14:13.85 bitrate=N/A speed=  19x    frame=20760 fps=457 q=-0.0 size=N/A time=00:14:25.86 bitrate=N/A speed=19.1x    frame=21037 fps=458 q=-0.0 size=N/A time=00:14:37.41 bitrate=N/A speed=19.1x    frame=21315 fps=459 q=-0.0 size=N/A time=00:14:49.01 bitrate=N/A speed=19.1x    frame=21574 fps=459 q=-0.0 size=N/A time=00:14:59.81 bitrate=N/A speed=19.2x    frame=21810 fps=459 q=-0.0 size=N/A time=00:15:09.65 bitrate=N/A speed=19.2x    frame=22043 fps=459 q=-0.0 size=N/A time=00:15:19.37 bitrate=N/A speed=19.2x    frame=22276 fps=459 q=-0.0 size=N/A time=00:15:29.09 bitrate=N/A speed=19.2x    frame=22537 fps=460 q=-0.0 size=N/A time=00:15:39.98 bitrate=N/A speed=19.2x    frame=22764 fps=460 q=-0.0 size=N/A time=00:15:49.44 bitrate=N/A speed=19.2x    frame=22972 fps=459 q=-0.0 size=N/A time=00:15:58.12 bitrate=N/A speed=19.1x    frame=23157 fps=458 q=-0.0 size=N/A time=00:16:05.83 bitrate=N/A speed=19.1x    frame=23377 fps=458 q=-0.0 size=N/A time=00:16:15.01 bitrate=N/A speed=19.1x    frame=23592 fps=457 q=-0.0 size=N/A time=00:16:23.98 bitrate=N/A speed=19.1x    frame=23795 fps=457 q=-0.0 size=N/A time=00:16:32.44 bitrate=N/A speed=  19x    frame=24004 fps=456 q=-0.0 size=N/A time=00:16:41.16 bitrate=N/A speed=  19x    frame=24205 fps=455 q=-0.0 size=N/A time=00:16:49.55 bitrate=N/A speed=  19x    frame=24407 fps=455 q=-0.0 size=N/A time=00:16:57.97 bitrate=N/A speed=  19x    frame=24668 fps=455 q=-0.0 size=N/A time=00:17:08.86 bitrate=N/A speed=  19x    frame=24869 fps=455 q=-0.0 size=N/A time=00:17:17.24 bitrate=N/A speed=  19x    frame=25053 fps=454 q=-0.0 size=N/A time=00:17:24.91 bitrate=N/A speed=18.9x    frame=25307 fps=454 q=-0.0 size=N/A time=00:17:35.51 bitrate=N/A speed=18.9x    frame=25579 fps=455 q=-0.0 size=N/A time=00:17:46.85 bitrate=N/A speed=  19x    frame=25844 fps=455 q=-0.0 size=N/A time=00:17:57.91 bitrate=N/A speed=  19x    frame=26091 fps=456 q=-0.0 size=N/A time=00:18:08.21 bitrate=N/A speed=  19x    frame=26291 fps=455 q=-0.0 size=N/A time=00:18:16.55 bitrate=N/A speed=  19x    frame=26517 fps=455 q=-0.0 size=N/A time=00:18:25.97 bitrate=N/A speed=  19x    frame=26775 fps=455 q=-0.0 size=N/A time=00:18:36.74 bitrate=N/A speed=  19x    frame=27012 fps=455 q=-0.0 size=N/A time=00:18:46.62 bitrate=N/A speed=  19x    frame=27218 fps=455 q=-0.0 size=N/A time=00:18:55.21 bitrate=N/A speed=  19x    frame=27427 fps=454 q=-0.0 size=N/A time=00:19:03.93 bitrate=N/A speed=18.9x    frame=27661 fps=454 q=-0.0 size=N/A time=00:19:13.69 bitrate=N/A speed=  19x    frame=27924 fps=455 q=-0.0 size=N/A time=00:19:24.66 bitrate=N/A speed=  19x    frame=28155 fps=455 q=-0.0 size=N/A time=00:19:34.29 bitrate=N/A speed=  19x    frame=28384 fps=455 q=-0.0 size=N/A time=00:19:43.84 bitrate=N/A speed=  19x    frame=28643 fps=455 q=-0.0 size=N/A time=00:19:54.65 bitrate=N/A speed=  19x    frame=28890 fps=455 q=-0.0 size=N/A time=00:20:04.95 bitrate=N/A speed=  19x    frame=29152 fps=456 q=-0.0 size=N/A time=00:20:15.88 bitrate=N/A speed=  19x    frame=29402 fps=456 q=-0.0 size=N/A time=00:20:26.30 bitrate=N/A speed=  19x    frame=29617 fps=456 q=-0.0 size=N/A time=00:20:35.27 bitrate=N/A speed=  19x    frame=29810 fps=455 q=-0.0 size=N/A time=00:20:43.32 bitrate=N/A speed=  19x    frame=29996 fps=454 q=-0.0 size=N/A time=00:20:51.08 bitrate=N/A speed=18.9x    frame=30167 fps=453 q=-0.0 size=N/A time=00:20:58.21 bitrate=N/A speed=18.9x    frame=30371 fps=453 q=-0.0 size=N/A time=00:21:06.72 bitrate=N/A speed=18.9x    frame=30576 fps=452 q=-0.0 size=N/A time=00:21:15.27 bitrate=N/A speed=18.9x    frame=30785 fps=452 q=-0.0 size=N/A time=00:21:23.99 bitrate=N/A speed=18.9x    frame=30996 fps=452 q=-0.0 size=N/A time=00:21:32.79 bitrate=N/A speed=18.8x    frame=31256 fps=452 q=-0.0 size=N/A time=00:21:43.63 bitrate=N/A speed=18.9x    frame=31516 fps=453 q=-0.0 size=N/A time=00:21:54.47 bitrate=N/A speed=18.9x    frame=31712 fps=452 q=-0.0 size=N/A time=00:22:02.65 bitrate=N/A speed=18.9x    frame=31942 fps=452 q=-0.0 size=N/A time=00:22:12.24 bitrate=N/A speed=18.8x    frame=32164 fps=452 q=-0.0 size=N/A time=00:22:21.50 bitrate=N/A speed=18.8x    frame=32429 fps=452 q=-0.0 size=N/A time=00:22:32.55 bitrate=N/A speed=18.9x    frame=32656 fps=452 q=-0.0 size=N/A time=00:22:42.02 bitrate=N/A speed=18.9x    frame=32875 fps=452 q=-0.0 size=N/A time=00:22:51.16 bitrate=N/A speed=18.9x    frame=33049 fps=451 q=-0.0 size=N/A time=00:22:58.41 bitrate=N/A speed=18.8x    frame=33263 fps=451 q=-0.0 size=N/A time=00:23:07.34 bitrate=N/A speed=18.8x    frame=33470 fps=451 q=-0.0 size=N/A time=00:23:15.97 bitrate=N/A speed=18.8x    frame=33668 fps=450 q=-0.0 size=N/A time=00:23:24.23 bitrate=N/A speed=18.8x    frame=33841 fps=449 q=-0.0 size=N/A time=00:23:31.45 bitrate=N/A speed=18.7x    frame=34000 fps=448 q=-0.0 size=N/A time=00:23:38.08 bitrate=N/A speed=18.7x    frame=34199 fps=448 q=-0.0 size=N/A time=00:23:46.38 bitrate=N/A speed=18.7x    frame=34420 fps=448 q=-0.0 size=N/A time=00:23:55.60 bitrate=N/A speed=18.7x    frame=34616 fps=447 q=-0.0 size=N/A time=00:24:03.77 bitrate=N/A speed=18.7x    [Parsed_psnr_10 @ 000001f1665ba7c0] PSNR y:48.048329 u:50.411891 v:50.966981 average:48.761852 min:30.604997 max:inf
[out#0/null @ 000001f15f9c3e80] video:14883KiB audio:270872KiB subtitle:0KiB other streams:0KiB global headers:0KiB muxing overhead: unknown
frame=34637 fps=447 q=-0.0 Lsize=N/A time=00:24:04.65 bitrate=N/A speed=18.7x    
